<svg xmlns="http://www.w3.org/2000/svg" width="18.501" height="16.313" viewBox="0 0 18.501 16.313">
  <path id="hearts" d="M12.032,2.188a3.277,3.277,0,0,1,2.45,5.458c-.6.678-5.732,5.48-5.732,5.48S3.61,8.324,3.008,7.635a3.243,3.243,0,0,1-.82-2.166,3.281,3.281,0,0,1,6.563,0,3.277,3.277,0,0,1,3.281-3.281m0-2.188A5.44,5.44,0,0,0,8.751,1.1a5.466,5.466,0,0,0-7.379,7.99c.615.7,4.661,4.493,5.886,5.638a2.187,2.187,0,0,0,2.988,0C11.466,13.58,15.5,9.8,16.119,9.1A5.464,5.464,0,0,0,12.032,0Z" transform="translate(0.5 0.5)" fill="#ff4848" stroke="rgba(0,0,0,0)" stroke-miterlimit="10" stroke-width="1"/>
</svg>
