<svg xmlns="http://www.w3.org/2000/svg" width="18.517" height="18.516" viewBox="0 0 18.517 18.516">
  <g id="Icon_ionic-ios-person" data-name="Icon ionic-ios-person" transform="translate(-2.5 -2.5)" fill="none">
    <path d="M19.009,18.65c-.272-1.2-1.826-1.788-2.363-1.977a17.615,17.615,0,0,0-1.97-.378,2,2,0,0,1-.911-.42,7.962,7.962,0,0,1-.06-1.864,5.607,5.607,0,0,0,.431-.82,10.581,10.581,0,0,0,.318-1.433s.31,0,.42-.544a5.356,5.356,0,0,0,.28-1.266c-.023-.435-.261-.423-.261-.423a6.628,6.628,0,0,0,.257-1.939A3.115,3.115,0,0,0,11.762,4.5,3.1,3.1,0,0,0,8.371,7.585a6.913,6.913,0,0,0,.253,1.939s-.238-.011-.261.423a5.356,5.356,0,0,0,.28,1.266c.106.544.42.544.42.544a10.581,10.581,0,0,0,.318,1.433,5.607,5.607,0,0,0,.431.82,7.962,7.962,0,0,1-.06,1.864,2,2,0,0,1-.911.42,17.615,17.615,0,0,0-1.97.378c-.537.189-2.09.775-2.363,1.977a.3.3,0,0,0,.3.367H18.714A.3.3,0,0,0,19.009,18.65Z" stroke="none"/>
    <path d="M 18.7141284942627 19.0162353515625 C 18.90691757202148 19.0162353515625 19.05056762695312 18.83856582641602 19.00897789001465 18.64954566955566 C 18.73680686950684 17.44742584228516 17.1831169128418 16.86148643493652 16.64631843566895 16.67246627807617 C 16.05659675598145 16.46455574035645 15.21737766265869 16.4154052734375 14.67679786682129 16.29443550109863 C 14.36680793762207 16.22639656066895 13.91695785522461 16.0562858581543 13.76574802398682 15.8748254776001 C 13.61453723907471 15.69337558746338 13.70526790618896 14.01115608215332 13.70526790618896 14.01115608215332 C 13.70526790618896 14.01115608215332 13.98500728607178 13.57642555236816 14.13621807098389 13.19083595275879 C 14.28742790222168 12.8090353012085 14.45375728607178 11.75811576843262 14.45375728607178 11.75811576843262 C 14.45375728607178 11.75811576843262 14.763747215271 11.75811576843262 14.87336730957031 11.21375560760498 C 14.99055767059326 10.62025547027588 15.17578792572021 10.38965606689453 15.15310764312744 9.947365760803223 C 15.13155269622803 9.534207344055176 14.91536998748779 9.523947715759277 14.89396858215332 9.523947715759277 C 14.89285182952881 9.523947715759277 14.89226722717285 9.523975372314453 14.89226722717285 9.523975372314453 C 14.89226722717285 9.523975372314453 15.12286758422852 8.892675399780273 15.14932727813721 7.584695816040039 C 15.18335723876953 6.031005859375 13.96610736846924 4.499995708465576 11.76220798492432 4.499995708465576 C 9.528067588806152 4.499995708465576 8.337287902832031 6.031005859375 8.371307373046875 7.584695816040039 C 8.401547431945801 8.892675399780273 8.624588012695312 9.523975372314453 8.624588012695312 9.523975372314453 C 8.624588012695312 9.523975372314453 8.624001502990723 9.523947715759277 8.622886657714844 9.523947715759277 C 8.601509094238281 9.523947715759277 8.385303497314453 9.534181594848633 8.363747596740723 9.947365760803223 C 8.341067314147949 10.38965606689453 8.526297569274902 10.62025547027588 8.643487930297852 11.21375560760498 C 8.749337196350098 11.75811576843262 9.063097953796387 11.75811576843262 9.063097953796387 11.75811576843262 C 9.063097953796387 11.75811576843262 9.229427337646484 12.80902576446533 9.380637168884277 13.19083595275879 C 9.531847953796387 13.57642555236816 9.811587333679199 14.01115608215332 9.811587333679199 14.01115608215332 C 9.811587333679199 14.01115608215332 9.902318000793457 15.69337558746338 9.751107215881348 15.8748254776001 C 9.599897384643555 16.0562858581543 9.15003776550293 16.22639656066895 8.840057373046875 16.29443550109863 C 8.299477577209473 16.4154052734375 7.460267543792725 16.46455574035645 6.870537757873535 16.67246627807617 C 6.333747386932373 16.86148643493652 4.780047416687012 17.44742584228516 4.507867813110352 18.64954566955566 C 4.466287612915039 18.83856582641602 4.60993766784668 19.0162353515625 4.806517601013184 19.0162353515625 L 18.7141284942627 19.0162353515625 M 18.7141284942627 21.0162353515625 L 4.806517601013184 21.0162353515625 C 4.103297710418701 21.0162353515625 3.44781756401062 20.70257568359375 3.008147716522217 20.15567588806152 C 2.569337606430054 19.6098461151123 2.404017686843872 18.90426635742188 2.554567575454712 18.2198657989502 L 2.555887699127197 18.21387481689453 L 2.55723762512207 18.20789527893066 C 2.991787672042847 16.28865623474121 4.781447410583496 15.2877254486084 6.206257820129395 14.78600597381592 C 6.726141929626465 14.60272121429443 7.269712924957275 14.51723861694336 7.758440494537354 14.44605731964111 C 7.67543888092041 14.28430843353271 7.591334342956543 14.10567378997803 7.520407676696777 13.92538452148438 C 7.403650760650635 13.62989711761475 7.302326679229736 13.21453857421875 7.223141193389893 12.82521343231201 C 6.972815036773682 12.50469875335693 6.778917789459229 12.0983772277832 6.681367874145508 11.60118579864502 L 6.68136739730835 11.60118579864502 C 6.657057762145996 11.47806549072266 6.626407623291016 11.38304615020752 6.583977699279785 11.25152587890625 C 6.484427452087402 10.94295597076416 6.333977699279785 10.47662544250488 6.366367816925049 9.844945907592773 C 6.380494117736816 9.574262619018555 6.42718505859375 9.335498809814453 6.494565963745117 9.125794410705566 C 6.435355186462402 8.734139442443848 6.385858058929443 8.237250328063965 6.371837615966797 7.63092565536499 C 6.342917442321777 6.309805870056152 6.853157520294189 5.015045642852783 7.771677494049072 4.07619571685791 C 8.766098022460938 3.059765815734863 10.18328762054443 2.499995708465576 11.76220798492432 2.499995708465576 C 13.33265781402588 2.499995708465576 14.74706745147705 3.061685800552368 15.74488735198975 4.081605911254883 C 16.66587829589844 5.022985935211182 17.17759704589844 6.315775871276855 17.14884757995605 7.628485679626465 C 17.13650894165039 8.238451957702637 17.08618927001953 8.739095687866211 17.0251407623291 9.134193420410156 C 17.09096908569336 9.341477394104004 17.13649940490723 9.576871871948242 17.15038681030273 9.843185424804688 C 17.1828784942627 10.47662544250488 17.03242683410645 10.94295597076416 16.9328784942627 11.25152587890625 C 16.89044761657715 11.38304615020752 16.85979843139648 11.47806549072266 16.83548736572266 11.60118579864502 L 16.83475685119629 11.60488605499268 L 16.83400726318359 11.60857582092285 C 16.72713851928711 12.1392822265625 16.51996421813965 12.53504848480225 16.29352951049805 12.82610893249512 C 16.21448516845703 13.21461200714111 16.11339950561523 13.62893009185791 15.99694728851318 13.92411518096924 C 15.92591381072998 14.10484313964844 15.84161472320557 14.28392124176025 15.75841522216797 14.44605731964111 C 16.24714660644531 14.51723957061768 16.79076766967773 14.6027364730835 17.31131744384766 14.78625583648682 C 18.73540687561035 15.28771591186523 20.52506828308105 16.28864669799805 20.95960807800293 18.20790481567383 L 20.96094703674316 18.21383666992188 L 20.96225738525391 18.21976661682129 C 21.11290740966797 18.90447616577148 20.94748687744141 19.61042594909668 20.50840759277344 20.15662574768066 C 20.06924819946289 20.70291519165039 19.41525840759277 21.0162353515625 18.7141284942627 21.0162353515625 Z" stroke="none" fill="#C5C5C5"/>
  </g>
</svg>
