<svg xmlns="http://www.w3.org/2000/svg" width="15.489" height="15.492" viewBox="0 0 15.489 15.492">
  <g id="Icon_ionic-ios-pricetag" data-name="Icon ionic-ios-pricetag" transform="translate(-1.375 -1.375)" fill="none">
    <path d="M14.071,3.375h-3.4a.4.4,0,0,0-.282.116L3.607,10.278a.8.8,0,0,0,0,1.124l3.232,3.232a.8.8,0,0,0,1.124,0L14.748,7.85a.4.4,0,0,0,.116-.282v-3.4A.792.792,0,0,0,14.071,3.375ZM12.753,6.463a.884.884,0,1,1,.782-.782A.885.885,0,0,1,12.753,6.463Z" stroke="none"/>
    <path d="M 10.67613220214844 3.375001907348633 C 10.57116317749023 3.375001907348633 10.46895313262939 3.416441917419434 10.39436340332031 3.491021156311035 L 3.607043266296387 10.27834129333496 C 3.297653198242188 10.58773231506348 3.297653198242188 11.09326171875 3.607043266296387 11.4026517868042 L 6.839102745056152 14.63471126556396 C 6.99379825592041 14.78940677642822 7.197527885437012 14.86675453186035 7.401257514953613 14.86675453186035 C 7.604988098144531 14.86675453186035 7.808717727661133 14.78940677642822 7.963413238525391 14.63471126556396 L 14.74797248840332 7.850152015686035 C 14.82255268096924 7.775571823120117 14.86399269104004 7.673361778259277 14.86399269104004 7.568391799926758 L 14.86399269104004 4.170581817626953 C 14.86675262451172 3.731351852416992 14.51040267944336 3.375001907348633 14.0711727142334 3.375001907348633 L 10.67613220214844 3.375001907348633 M 12.65579032897949 6.468691825866699 C 12.1368522644043 6.468691825866699 11.72371768951416 6.018919944763184 11.77834320068359 5.488271713256836 C 11.82254314422607 5.079421997070312 12.15127277374268 4.747931480407715 12.56011295318604 4.706491470336914 C 12.59299468994141 4.702945709228516 12.62565040588379 4.701211929321289 12.65780639648438 4.701211929321289 C 13.17675304412842 4.701211929321289 13.58988761901855 5.150983810424805 13.53526306152344 5.681641578674316 C 13.49106311798096 6.090481758117676 13.16232299804688 6.419211387634277 12.75348281860352 6.463411331176758 C 12.72060108184814 6.466957092285156 12.68794631958008 6.468691825866699 12.65579032897949 6.468691825866699 M 10.67613220214844 1.375001907348633 L 14.0711727142334 1.375001907348633 C 14.8209228515625 1.375001907348633 15.52477264404297 1.667781829833984 16.05307388305664 2.199411392211914 C 16.5787181854248 2.728374481201172 16.86650466918945 3.429608345031738 16.86399269104004 4.174795150756836 L 16.86399269104004 7.568391799926758 C 16.86399269104004 8.200201988220215 16.60819244384766 8.818361282348633 16.16218185424805 9.264361381530762 L 9.377622604370117 16.04892158508301 C 8.850193023681641 16.57632064819336 8.148323059082031 16.86675262451172 7.401252746582031 16.86675262451172 C 6.654163360595703 16.86675262451172 5.952273368835449 16.5763111114502 5.424893379211426 16.04892158508301 L 2.192832946777344 12.81686210632324 C 1.103052139282227 11.72709178924561 1.103052139282227 9.953901290893555 2.192832946777344 8.864131927490234 L 8.98015308380127 2.076810836791992 C 9.426253318786621 1.630762100219727 10.04438304901123 1.375001907348633 10.67613220214844 1.375001907348633 Z" stroke="none" fill="#C5C5C5"/>
  </g>
</svg>
