<svg xmlns="http://www.w3.org/2000/svg" width="9.21" height="8.798" viewBox="0 0 9.21 8.798">
  <path id="star-half-alt" d="M8.734,2.947,6.219,2.581,5.1.306a.552.552,0,0,0-.988,0L2.983,2.581.467,2.947a.55.55,0,0,0-.3.938l1.82,1.77-.431,2.5a.551.551,0,0,0,.543.644.543.543,0,0,0,.256-.064L4.6,7.553l2.25,1.18a.55.55,0,0,0,.8-.579l-.43-2.5,1.82-1.77a.55.55,0,0,0-.3-.938ZM6.642,5.064l-.311.3.074.428L6.74,7.744,4.985,6.823l-.385-.2V1.171l.877,1.775.192.389L6.1,3.4l1.963.286Z" transform="translate(0.004)" fill="#febb11"/>
</svg>
